<?xml version="1.0" encoding="UTF-8"?>
<svg version="1.1" xmlns="http://www.w3.org/2000/svg" width="276" height="233">
<path d="M0 0 C91.08 0 182.16 0 276 0 C276 76.89 276 153.78 276 233 C184.92 233 93.84 233 0 233 C0 156.11 0 79.22 0 0 Z " fill="#000001" transform="translate(0,0)"/>
<path d="M0 0 C0.91966553 0.00684814 1.83933105 0.01369629 2.78686523 0.02075195 C16.07965439 0.32732315 28.10834295 3.80249083 40.125 9.4375 C41.76682039 10.18773354 43.40875745 10.93771177 45.05078125 11.6875 C46.80546491 12.49831972 48.55937006 13.31082631 50.3125 14.125 C51.16376465 14.51776123 52.0150293 14.91052246 52.89208984 15.31518555 C53.68437988 15.6894165 54.47666992 16.06364746 55.29296875 16.44921875 C56.36454224 16.95134888 56.36454224 16.95134888 57.45776367 17.46362305 C59.125 18.4375 59.125 18.4375 60.125 20.4375 C55.93159166 19.06912465 51.8033591 17.58606335 47.6875 16 C45.97046875 15.34064453 45.97046875 15.34064453 44.21875 14.66796875 C42.0109081 13.78984981 39.83562949 12.82797939 37.6875 11.8125 C27.10439618 7.72779326 12.58796208 4.62867207 1.40625 8.33984375 C-0.96141957 9.50064981 -0.96141957 9.50064981 -3.875 11.4375 C-4.535 11.4375 -5.195 11.4375 -5.875 11.4375 C-6.184375 12.05625 -6.49375 12.675 -6.8125 13.3125 C-7.5 14.6875 -8.1875 16.0625 -8.875 17.4375 C-9.54605633 26.85429048 -9.49461475 34.97962967 -4.875 43.4375 C-4.14603516 44.83162109 -4.14603516 44.83162109 -3.40234375 46.25390625 C4.7903229 61.10916705 16.09490308 74.61745485 29.125 85.4375 C30.01960938 86.20835937 30.91421875 86.97921875 31.8359375 87.7734375 C54.94401275 107.48505025 85.61511797 127.40427834 116.9375 127.75 C117.80181641 127.77900391 118.66613281 127.80800781 119.55664062 127.83789062 C126.86137757 127.90955974 132.15652754 126.17762842 137.5625 121.1875 C139.64777425 117.51741732 139.84044164 114.63473584 140.125 110.4375 C140.785 110.4375 141.445 110.4375 142.125 110.4375 C142.57246403 117.5969245 142.24721688 123.701322 137.49609375 129.38671875 C129.67052557 136.92772081 120.88289146 137.98713792 110.34960938 137.92333984 C93.7496588 137.34213764 78.80566327 130.68108407 64.125 123.4375 C63.43921875 123.10347168 62.7534375 122.76944336 62.046875 122.42529297 C42.57680629 112.85088668 24.85377996 99.30550096 9.125 84.4375 C8.31675781 83.68210937 7.50851563 82.92671875 6.67578125 82.1484375 C-8.94698037 67.08976304 -26.45100615 45.44914977 -27.25 23 C-27.11008443 15.38334612 -25.42225317 10.98475317 -20.0625 5.625 C-13.30864377 0.99000063 -8.05220009 -0.09251999 0 0 Z " fill="#E51E27" transform="translate(70.875,46.5625)"/>
<path d="M0 0 C13.53 0 27.06 0 41 0 C41 4.95 41 9.9 41 15 C32.75 15 24.5 15 16 15 C16 18.3 16 21.6 16 25 C23.59 25 31.18 25 39 25 C39 29.95 39 34.9 39 40 C31.74 40 24.48 40 17 40 C17 43.63 17 47.26 17 51 C25.25 51 33.5 51 42 51 C42 55.95 42 60.9 42 66 C28.14 66 14.28 66 0 66 C0 44.22 0 22.44 0 0 Z " fill="#00AAEA" transform="translate(187,87)"/>
<path d="M0 0 C5.94 0 11.88 0 18 0 C22 7 26 14 30 21 C34.21585187 14.10812867 38.16965172 7.11350394 42 0 C48.27 0 54.54 0 61 0 C60.15707886 4.21460571 59.74161936 5.82887789 57.55859375 9.1875 C56.81186401 10.34741455 56.81186401 10.34741455 56.05004883 11.53076172 C55.51790771 12.34561035 54.9857666 13.16045898 54.4375 14 C53.62865356 15.28608154 53.62865356 15.28608154 52.8034668 16.59814453 C50.50282833 20.24284923 48.24188019 23.81833645 45.4609375 27.1171875 C36.9792142 38.00463596 38.8602992 52.84193084 39 66 C33.39 66 27.78 66 22 66 C22.06574219 63.12087891 22.06574219 63.12087891 22.1328125 60.18359375 C22.21625564 46.00660413 22.11791573 34.97841445 12.48632812 23.83984375 C9.58209827 20.24485751 7.26942891 16.25651917 4.875 12.3125 C4.14724365 11.16068237 4.14724365 11.16068237 3.40478516 9.9855957 C2.95925293 9.26460693 2.5137207 8.54361816 2.0546875 7.80078125 C1.65749512 7.16309814 1.26030273 6.52541504 0.85107422 5.8684082 C0 4 0 4 0 0 Z " fill="#00A8E8" transform="translate(123,87)"/>
<path d="M0 0 C0 0.66 0 1.32 0 2 C4.95 2.33 9.9 2.66 15 3 C15 3.33 15 3.66 15 4 C13.81664062 4.01417969 12.63328125 4.02835938 11.4140625 4.04296875 C0.99787848 4.30298773 -7.74207634 4.74207634 -15.5 12.5 C-19.890733 19.81788833 -19.89627212 27.22303814 -18.60546875 35.54296875 C-10.95494133 65.00983889 16.34105737 89.79609512 40 107 C40.58426758 107.42941895 41.16853516 107.85883789 41.77050781 108.30126953 C68.32294856 127.73046192 102.35780273 143.97411427 136 142 C138.27140426 141.13252634 138.27140426 141.13252634 140.125 139.75 C141.11886719 139.07130859 141.11886719 139.07130859 142.1328125 138.37890625 C144.47682682 136.64786639 146.77271744 134.87926966 149 133 C147.6985496 137.05584278 146.39134475 138.88989399 142.8125 141.1875 C141.70841797 141.92033203 141.70841797 141.92033203 140.58203125 142.66796875 C125.67568573 150.35792914 105.39890201 146.46390621 90.12451172 141.68359375 C89.42342285 141.45800781 88.72233398 141.23242188 88 141 C86.28490234 140.45859375 86.28490234 140.45859375 84.53515625 139.90625 C63.5083609 132.48190864 44.64824302 119.35542715 27 106 C27 107.32 27 108.64 27 110 C21.39 110 15.78 110 10 110 C10.020625 108.6490625 10.04125 107.298125 10.0625 105.90625 C10.32707367 96.31153556 10.32707367 96.31153556 7.5390625 87.3828125 C5.63130711 85.57827376 5.63130711 85.57827376 3.44140625 83.953125 C0.30045538 81.4403643 -1.98601151 78.54532349 -4.4375 75.375 C-4.90140137 74.78033936 -5.36530273 74.18567871 -5.84326172 73.57299805 C-10.64917618 67.31426886 -14.8775253 60.72478686 -19 54 C-19.52207031 53.21882813 -20.04414062 52.43765625 -20.58203125 51.6328125 C-25.53095314 42.44390519 -28.83274466 29.3054331 -27 19 C-24.68960381 11.56010034 -20.76821892 6.79070302 -14 3 C-9.28308906 0.67251862 -5.32667296 -0.39950047 0 0 Z " fill="#0C0B0E" transform="translate(64,43)"/>
<path d="M0 0 C4.80133868 -0.12473502 9.60170955 -0.21486503 14.40429688 -0.2746582 C16.03369603 -0.29961442 17.66298542 -0.33359254 19.29199219 -0.37719727 C37.45531586 -0.85078086 37.45531586 -0.85078086 45 5 C50.4896086 10.74383475 53.01757718 16.28617277 53.375 24.25 C53.1804039 32.20681843 51.01077552 38.51060042 45.1875 44.0625 C41.68534455 47.13139911 38.66611653 48.01505199 34 48 C31.49929937 46.29867894 29.74919256 44.87225314 27.6875 42.75 C27.16349609 42.24597656 26.63949219 41.74195313 26.09960938 41.22265625 C23.75601087 38.9360723 21.82079157 36.73118735 20 34 C20.83144531 33.97421875 21.66289063 33.9484375 22.51953125 33.921875 C24.14955078 33.83679688 24.14955078 33.83679688 25.8125 33.75 C26.89144531 33.70359375 27.97039062 33.6571875 29.08203125 33.609375 C32.05805872 33.25474309 32.05805872 33.25474309 33.859375 31.234375 C35.10819337 28.78805957 35.43281886 27.23378519 35.4375 24.5 C35.45683594 23.7471875 35.47617188 22.994375 35.49609375 22.21875 C34.78185965 19.02438016 33.63748182 17.91971301 31 16 C27.50727748 15.30220618 27.50727748 15.30220618 23.75 15.25 C21.5225 15.1675 19.295 15.085 17 15 C17 20.28 17 25.56 17 31 C12.30691561 27.42917492 8.33890756 23.3984707 4.5625 18.875 C4.11342285 18.3797583 3.6643457 17.8845166 3.20166016 17.37426758 C-1.04545986 12.08470257 -0.43857794 6.51658736 0 0 Z " fill="#00A7E8" transform="translate(74,87)"/>
<path d="M0 0 C0.66 0 1.32 0 2 0 C2 76.89 2 153.78 2 233 C-89.08 233 -180.16 233 -274 233 C-274 232.34 -274 231.68 -274 231 C-183.58 231 -93.16 231 0 231 C0 154.77 0 78.54 0 0 Z " fill="#FFFFFF" transform="translate(274,0)"/>
<path d="M0 0 C-2.87603277 1.520661 -5.73429742 2.58762149 -8.8125 3.625 C-14.93370643 6.06624924 -19.19026343 9.88548681 -21.87109375 15.98046875 C-22.45675817 18.0040403 -22.77978109 19.90591834 -23 22 C-23.08121094 22.66386719 -23.16242187 23.32773438 -23.24609375 24.01171875 C-24.58064742 45.8903108 -7.52552422 66.24068533 5.921875 81.57421875 C13.59993565 90.1939738 21.85987393 97.94152568 31 105 C31.54076172 105.42249023 32.08152344 105.84498047 32.63867188 106.28027344 C58.66309228 126.50015513 94.0332542 146.84337012 128 144 C136.51426053 142.44580959 142.38221759 138.44993846 149 133 C147.6985496 137.05584278 146.39134475 138.88989399 142.8125 141.1875 C141.70841797 141.92033203 141.70841797 141.92033203 140.58203125 142.66796875 C125.67568573 150.35792914 105.39890201 146.46390621 90.12451172 141.68359375 C89.42342285 141.45800781 88.72233398 141.23242188 88 141 C86.28490234 140.45859375 86.28490234 140.45859375 84.53515625 139.90625 C63.5083609 132.48190864 44.64824302 119.35542715 27 106 C27 107.32 27 108.64 27 110 C21.39 110 15.78 110 10 110 C10.020625 108.6490625 10.04125 107.298125 10.0625 105.90625 C10.32707367 96.31153556 10.32707367 96.31153556 7.5390625 87.3828125 C5.63130711 85.57827376 5.63130711 85.57827376 3.44140625 83.953125 C0.30045538 81.4403643 -1.98601151 78.54532349 -4.4375 75.375 C-4.90140137 74.78033936 -5.36530273 74.18567871 -5.84326172 73.57299805 C-10.64917618 67.31426886 -14.8775253 60.72478686 -19 54 C-19.52207031 53.21882813 -20.04414062 52.43765625 -20.58203125 51.6328125 C-25.53095314 42.44390519 -28.83274466 29.3054331 -27 19 C-24.68960381 11.56010034 -20.76821892 6.79070302 -14 3 C-9.28308906 0.67251862 -5.32667296 -0.39950047 0 0 Z " fill="#019EDA" transform="translate(64,43)"/>
<path d="M0 0 C0.33 0 0.66 0 1 0 C0.94457031 0.55945313 0.88914062 1.11890625 0.83203125 1.6953125 C0.75602211 11.15084982 6.92632376 17.37026135 13 24 C14.32 25.32 15.64 26.64 17 28 C17.33 23.05 17.66 18.1 18 13 C30.94619459 12.39503764 30.94619459 12.39503764 35.375 14.9375 C37.5920789 19.11584101 37.85507823 22.3725178 37 27 C35.6875 30 35.6875 30 33 32 C29.3336732 32.70161362 25.7279305 32.92929787 22 33 C23.41346562 34.44064765 24.83091211 35.87739015 26.25 37.3125 C27.43335938 38.51326172 27.43335938 38.51326172 28.640625 39.73828125 C32.34531081 43.28962741 34.85287337 45.2851213 40 46 C39.34 47.98 38.68 49.96 38 52 C33.80574309 49.71012077 30.44665215 46.82982126 27 43.5625 C24.17781684 40.90864503 21.36720574 38.29193663 18.33203125 35.87890625 C14.74043398 32.98517378 11.9455962 29.53229606 9 26 C8.30003906 25.1646875 7.60007812 24.329375 6.87890625 23.46875 C3.34306488 19.16086253 0.16914006 15.15170764 -2 10 C-1.67 9.67 -1.34 9.34 -1 9 C-0.76807135 7.48530552 -0.58784762 5.96245438 -0.4375 4.4375 C-0.35371094 3.61121094 -0.26992187 2.78492187 -0.18359375 1.93359375 C-0.12300781 1.29550781 -0.06242187 0.65742187 0 0 Z " fill="#030406" transform="translate(73,89)"/>
<path d="M0 0 C4.76724686 3.10753869 9.40967845 6.30156625 13.9375 9.75 C37.39125456 26.89054029 69.52168115 42.46764208 99 40 C107.51426053 38.44580959 113.38221759 34.44993846 120 29 C118.6985496 33.05584278 117.39134475 34.88989399 113.8125 37.1875 C112.70841797 37.92033203 112.70841797 37.92033203 111.58203125 38.66796875 C96.67568573 46.35792914 76.39890201 42.46390621 61.12451172 37.68359375 C60.42342285 37.45800781 59.72233398 37.23242188 59 37 C57.28490234 36.45859375 57.28490234 36.45859375 55.53515625 35.90625 C36.55161207 29.20335924 14.35367391 17.35367391 0 3 C0 2.01 0 1.02 0 0 Z " fill="#0194CC" transform="translate(93,147)"/>
<path d="M0 0 C4.0579033 2.02895165 6.88473447 4.48385355 10.125 7.5625 C13.76403407 11.18633907 13.76403407 11.18633907 18 14 C18 14.99 18 15.98 18 17 C17.34 17 16.68 17 16 17 C16 18.32 16 19.64 16 21 C10.72 21 5.44 21 0 21 C0 14.07 0 7.14 0 0 Z " fill="#00AAEC" transform="translate(75,132)"/>
<path d="M0 0 C0.26731934 0.55719727 0.53463867 1.11439453 0.81005859 1.68847656 C2.1054691 4.20487925 3.54429315 6.58102036 5.0390625 8.984375 C5.61914062 9.91894531 6.19921875 10.85351562 6.796875 11.81640625 C7.40015625 12.78449219 8.0034375 13.75257812 8.625 14.75 C9.23601562 15.73355469 9.84703125 16.71710938 10.4765625 17.73046875 C11.98282748 20.15461396 13.49069239 22.57774844 15 25 C12.77092773 28.91874804 10.73970169 31.41097576 7 34 C6.34 34 5.68 34 5 34 C4.8453125 34.928125 4.8453125 34.928125 4.6875 35.875 C4 38 4 38 1 40 C1.2165625 39.40574219 1.433125 38.81148437 1.65625 38.19921875 C4.39324113 30.05160162 5.64204447 22.28644438 2.3125 14.125 C0.43789684 10.40238379 -1.8426911 7.7525257 -5 5 C-6 4 -7 3 -8 2 C-4.91190305 0.23537317 -3.76687864 0 0 0 Z " fill="#03090C" transform="translate(122,87)"/>
<path d="M0 0 C18.21182192 -0.64088523 33.33710267 1.18621462 50 9 C51.64182039 9.75023354 53.28375745 10.50021177 54.92578125 11.25 C56.68046491 12.06081972 58.43437006 12.87332631 60.1875 13.6875 C61.03876465 14.08026123 61.8900293 14.47302246 62.76708984 14.87768555 C63.55937988 15.2519165 64.35166992 15.62614746 65.16796875 16.01171875 C66.23954224 16.51384888 66.23954224 16.51384888 67.33276367 17.02612305 C69 18 69 18 70 20 C65.80659166 18.63162465 61.6783591 17.14856335 57.5625 15.5625 C56.4178125 15.12292969 55.273125 14.68335938 54.09375 14.23046875 C51.8859081 13.35234981 49.71062949 12.39047939 47.5625 11.375 C36.74939642 7.20152143 25.4558376 6.43145362 14 6 C15.32 4.68 16.64 3.36 18 2 C12.06 1.67 6.12 1.34 0 1 C0 0.67 0 0.34 0 0 Z " fill="#D71C25" transform="translate(61,47)"/>
<path d="M0 0 C0.66 0 1.32 0 2 0 C2.44746403 7.1594245 2.12221688 13.263822 -2.62890625 18.94921875 C-8.45692096 24.56530566 -14.93764441 27 -23 27 C-23 26.34 -23 25.68 -23 25 C-21.01310269 23.64721885 -19.01254782 22.31431695 -17 21 C-16.67 20.34 -16.34 19.68 -16 19 C-20.29 19 -24.58 19 -29 19 C-29 18.67 -29 18.34 -29 18 C-27.9378125 17.97421875 -26.875625 17.9484375 -25.78125 17.921875 C-16.59061132 17.59596583 -9.66779162 17.30873073 -2.5625 10.75 C-0.47722575 7.07991732 -0.28455836 4.19723584 0 0 Z " fill="#DA1D26" transform="translate(211,157)"/>
<path d="M0 0 C0.33 0 0.66 0 1 0 C0.94457031 0.55945313 0.88914062 1.11890625 0.83203125 1.6953125 C0.75602211 11.15084982 6.92632376 17.37026135 13 24 C14.32 25.32 15.64 26.64 17 28 C17.33 23.05 17.66 18.1 18 13 C22.62 13 27.24 13 32 13 C32 13.33 32 13.66 32 14 C27.71 14 23.42 14 19 14 C19 19.28 19 24.56 19 30 C17.02 30.99 17.02 30.99 15 32 C8.09365526 25.77111687 3.07834242 18.71155701 -2 11 C-1.67 10.34 -1.34 9.68 -1 9 C-0.77532169 7.46331135 -0.59203195 5.92031946 -0.4375 4.375 C-0.35371094 3.55773437 -0.26992187 2.74046875 -0.18359375 1.8984375 C-0.12300781 1.27195312 -0.06242187 0.64546875 0 0 Z " fill="#081921" transform="translate(73,89)"/>
<path d="M0 0 C4.76724686 3.10753869 9.40967845 6.30156625 13.9375 9.75 C21.47003772 15.30255638 29.76436351 19.59169631 38 24 C38 24.66 38 25.32 38 26 C33.15807476 25.4111172 29.53111952 23.32625612 25.375 20.9375 C24.67004395 20.5362793 23.96508789 20.13505859 23.23876953 19.72167969 C17.18040204 16.21601837 11.51711438 12.30995089 6 8 C5.33871094 7.50371094 4.67742187 7.00742188 3.99609375 6.49609375 C2.3125 5.1875 2.3125 5.1875 0 3 C0 2.01 0 1.02 0 0 Z " fill="#0399D1" transform="translate(93,147)"/>
<path d="M0 0 C8.50694014 -0.22888628 16.84412125 0.02371996 25.3125 0.875 C26.55737183 0.99270752 26.55737183 0.99270752 27.82739258 1.11279297 C33.7549041 1.7549041 33.7549041 1.7549041 36 4 C24.48345589 7.83884804 11.30282204 3.90015136 0 1 C0 0.67 0 0.34 0 0 Z " fill="#03151B" transform="translate(159,183)"/>
<path d="M0 0 C0.99 0.66 1.98 1.32 3 2 C1.90344712 3.31886772 0.79746577 4.62990057 -0.3125 5.9375 C-0.92738281 6.66839844 -1.54226562 7.39929688 -2.17578125 8.15234375 C-4 10 -4 10 -7 11 C-7 11.66 -7 12.32 -7 13 C-7.639375 13.12375 -8.27875 13.2475 -8.9375 13.375 C-9.618125 13.58125 -10.29875 13.7875 -11 14 C-11.33 14.66 -11.66 15.32 -12 16 C-12 12 -12 12 -9.375 8.984375 C-8.25999428 7.89591703 -7.13452915 6.81809275 -6 5.75 C-5.42765625 5.19570312 -4.8553125 4.64140625 -4.265625 4.0703125 C-2.85256943 2.70435878 -1.42741242 1.35094389 0 0 Z " fill="#0E0E0F" transform="translate(170,197)"/>
<path d="M0 0 C0.66 0.66 1.32 1.32 2 2 C0.90344712 3.31886772 -0.20253423 4.62990057 -1.3125 5.9375 C-1.92738281 6.66839844 -2.54226562 7.39929687 -3.17578125 8.15234375 C-5 10 -5 10 -8 11 C-8 11.66 -8 12.32 -8 13 C-9.5 14.625 -9.5 14.625 -11 16 C-11.99 15.67 -12.98 15.34 -14 15 C-13.1875 13.0625 -13.1875 13.0625 -12 11 C-11.01 10.67 -10.02 10.34 -9 10 C-8.31558691 8.6756885 -7.65095851 7.34107242 -7 6 C-5.2734375 4.296875 -5.2734375 4.296875 -3.375 2.75 C-2.74335938 2.22921875 -2.11171875 1.7084375 -1.4609375 1.171875 C-0.73777344 0.59179688 -0.73777344 0.59179688 0 0 Z " fill="#0E0E0E" transform="translate(197,49)"/>
<path d="M0 0 C0.99 0.33 1.98 0.66 3 1 C1.55922954 4.36179774 -0.24750021 6.59156268 -3 9 C-3.66 9 -4.32 9 -5 9 C-5 9.66 -5 10.32 -5 11 C-6.32 11.33 -7.64 11.66 -9 12 C-9.33 13.32 -9.66 14.64 -10 16 C-10.99 15.67 -11.98 15.34 -13 15 C-12.1875 13.0625 -12.1875 13.0625 -11 11 C-10.01 10.67 -9.02 10.34 -8 10 C-7.731875 9.443125 -7.46375 8.88625 -7.1875 8.3125 C-5.42097496 4.87242492 -2.78863174 2.66738688 0 0 Z " fill="#0E0E0E" transform="translate(257,110)"/>
<path d="M0 0 C0.66 0.66 1.32 1.32 2 2 C1.5875 2.391875 1.175 2.78375 0.75 3.1875 C-1.12755479 5.06167301 -1.12755479 5.06167301 -3 7.625 C-5 10 -5 10 -8 11 C-8 11.66 -8 12.32 -8 13 C-8.66 13 -9.32 13 -10 13 C-10.33 13.99 -10.66 14.98 -11 16 C-11.99 15.67 -12.98 15.34 -14 15 C-14 14.34 -14 13.68 -14 13 C-13.34 13 -12.68 13 -12 13 C-11.67 12.01 -11.34 11.02 -11 10 C-10.34 10 -9.68 10 -9 10 C-8.74476563 9.40703125 -8.48953125 8.8140625 -8.2265625 8.203125 C-6.88183502 5.78775462 -5.50785633 4.48788294 -3.375 2.75 C-2.74335938 2.22921875 -2.11171875 1.7084375 -1.4609375 1.171875 C-0.73777344 0.59179688 -0.73777344 0.59179688 0 0 Z " fill="#0F0D0E" transform="translate(168,78)"/>
<path d="M0 0 C0.99 0.66 1.98 1.32 3 2 C2.236875 2.7425 1.47375 3.485 0.6875 4.25 C-1.95571199 6.823554 -1.95571199 6.823554 -3.6875 9.3125 C-4.3371875 10.1478125 -4.3371875 10.1478125 -5 11 C-5.66 11 -6.32 11 -7 11 C-7 11.99 -7 12.98 -7 14 C-8.32 14 -9.64 14 -11 14 C-11.33 14.66 -11.66 15.32 -12 16 C-12.103125 15.401875 -12.20625 14.80375 -12.3125 14.1875 C-13.08876455 11.71756736 -14.07088921 10.67748765 -16 9 C-13.36 9.33 -10.72 9.66 -8 10 C-7.79375 9.46375 -7.5875 8.9275 -7.375 8.375 C-5.42003056 4.9982346 -2.81776305 2.69525161 0 0 Z " fill="#0F0F0F" transform="translate(147,58)"/>
<path d="M0 0 C0.99 0.33 1.98 0.66 3 1 C-4.05024311 9.36628849 -4.05024311 9.36628849 -7 12 C-7.66 12 -8.32 12 -9 12 C-9.33 12.66 -9.66 13.32 -10 14 C-10.99 14.33 -11.98 14.66 -13 15 C-12.52794881 10.75153925 -10.11122478 8.73180712 -7 6 C-6.34 6 -5.68 6 -5 6 C-4.67 5.01 -4.34 4.02 -4 3 C-2.125 1.25 -2.125 1.25 0 0 Z " fill="#0E0E0E" transform="translate(266,61)"/>
<path d="M0 0 C0.99 0.66 1.98 1.32 3 2 C1 5 1 5 -2 6 C-3.0064275 7.66279327 -4.00585407 9.32983484 -5 11 C-8.4137931 14 -8.4137931 14 -11 14 C-11.33 14.66 -11.66 15.32 -12 16 C-12 12 -12 12 -9.375 8.984375 C-8.25999428 7.89591703 -7.13452915 6.81809275 -6 5.75 C-5.42765625 5.19570313 -4.8553125 4.64140625 -4.265625 4.0703125 C-2.85256943 2.70435878 -1.42741242 1.35094389 0 0 Z " fill="#0E0E0E" transform="translate(57,26)"/>
<path d="M0 0 C0.66 0.66 1.32 1.32 2 2 C1.5875 2.391875 1.175 2.78375 0.75 3.1875 C-1.12755479 5.06167301 -1.12755479 5.06167301 -3 7.625 C-5 10 -5 10 -8 11 C-8.69937532 12.31647119 -9.36729133 13.65022151 -10 15 C-10.99 15.495 -10.99 15.495 -12 16 C-12.66 15.67 -13.32 15.34 -14 15 C-14 14.34 -14 13.68 -14 13 C-13.34 13 -12.68 13 -12 13 C-11.67 12.01 -11.34 11.02 -11 10 C-10.34 10 -9.68 10 -9 10 C-9 9.34 -9 8.68 -9 8 C-8.34 8 -7.68 8 -7 8 C-6.773125 7.4225 -6.54625 6.845 -6.3125 6.25 C-4.66961977 3.4336339 -2.60466773 1.91922886 0 0 Z " fill="#0E0E0E" transform="translate(226,20)"/>
<path d="M0 0 C0.66 0.66 1.32 1.32 2 2 C-6.27906977 11.58139535 -6.27906977 11.58139535 -9 14 C-9.66 14 -10.32 14 -11 14 C-11.33 14.66 -11.66 15.32 -12 16 C-12.33 15.01 -12.66 14.02 -13 13 C-12.34 12.01 -11.68 11.02 -11 10 C-10.34 10 -9.68 10 -9 10 C-9 9.34 -9 8.68 -9 8 C-8.34 8 -7.68 8 -7 8 C-6.773125 7.4225 -6.54625 6.845 -6.3125 6.25 C-4.66961977 3.4336339 -2.60466773 1.91922886 0 0 Z " fill="#0E0E0E" transform="translate(121,206)"/>
<path d="M0 0 C0.33 0.66 0.66 1.32 1 2 C1.66 2.33 2.32 2.66 3 3 C1.33333333 4.66666667 -0.33333333 6.33333333 -2 8 C-2.886875 8.928125 -3.77375 9.85625 -4.6875 10.8125 C-7 13 -7 13 -9 13 C-9 13.66 -9 14.32 -9 15 C-10.32 15.33 -11.64 15.66 -13 16 C-12.52794881 11.75153925 -10.11122478 9.73180712 -7 7 C-6.34 7 -5.68 7 -5 7 C-4.67 6.01 -4.34 5.02 -4 4 C-2.70644173 2.62804426 -1.37701298 1.28817344 0 0 Z " fill="#0E0E0E" transform="translate(51,194)"/>
<path d="M0 0 C0.33 0.66 0.66 1.32 1 2 C1.66 2.33 2.32 2.66 3 3 C2.34 3 1.68 3 1 3 C1 3.66 1 4.32 1 5 C0.01 5.33 -0.98 5.66 -2 6 C-2.99 7.485 -2.99 7.485 -4 9 C-6 12 -6 12 -9 13 C-9 13.66 -9 14.32 -9 15 C-9.66 15 -10.32 15 -11 15 C-11.33 15.66 -11.66 16.32 -12 17 C-12.66 16.01 -13.32 15.02 -14 14 C-12.88121617 12.82737096 -11.75476949 11.66204862 -10.625 10.5 C-9.99851562 9.8503125 -9.37203125 9.200625 -8.7265625 8.53125 C-7 7 -7 7 -5 7 C-4.67 6.01 -4.34 5.02 -4 4 C-3.34 4 -2.68 4 -2 4 C-2 3.34 -2 2.68 -2 2 C-1.34 2 -0.68 2 0 2 C0 1.34 0 0.68 0 0 Z " fill="#0E0E0E" transform="translate(269,179)"/>
<path d="M0 0 C3.41796875 3.3203125 3.41796875 3.3203125 5 5 C5.886875 5.825 6.77375 6.65 7.6875 7.5 C11.25656162 11.82019747 10.3099098 16.593152 9.8125 21.875 C9.74224609 22.84953125 9.67199219 23.8240625 9.59960938 24.828125 C9.42361356 27.22166815 9.22316279 29.61047086 9 32 C8.67 32 8.34 32 8 32 C8.01160156 31.43603516 8.02320312 30.87207031 8.03515625 30.29101562 C8.56549424 19.19231942 8.56549424 19.19231942 5.1171875 9.03125 C2.95048713 6.97970246 2.95048713 6.97970246 0.6171875 5.4375 C-0.18332031 4.7259375 -0.18332031 4.7259375 -1 4 C-0.7421875 1.8125 -0.7421875 1.8125 0 0 Z " fill="#007CAD" transform="translate(66,121)"/>
<path d="M0 0 C0.99 0.66 1.98 1.32 3 2 C2.34 2 1.68 2 1 2 C1 2.66 1 3.32 1 4 C0.01 4.33 -0.98 4.66 -2 5 C-2.99 6.485 -2.99 6.485 -4 8 C-6 11 -6 11 -9 12 C-9 12.66 -9 13.32 -9 14 C-9.66 14 -10.32 14 -11 14 C-11.33 14.66 -11.66 15.32 -12 16 C-12.66 15.01 -13.32 14.02 -14 13 C-12.41984377 11.39270369 -10.83574348 9.78928424 -9.25 8.1875 C-8.36828125 7.29417969 -7.4865625 6.40085938 -6.578125 5.48046875 C-4.46551149 3.44787848 -2.39205335 1.68226182 0 0 Z " fill="#0E0E0E" transform="translate(240,209)"/>
<path d="M0 0 C0.99 0.66 1.98 1.32 3 2 C2.236875 2.391875 1.47375 2.78375 0.6875 3.1875 C-2.28306158 5.190902 -3.20886296 6.96285459 -5 10 C-7.1875 11.3125 -7.1875 11.3125 -9 12 C-9 12.66 -9 13.32 -9 14 C-9.66 14 -10.32 14 -11 14 C-11.33 14.66 -11.66 15.32 -12 16 C-12.66 15.01 -13.32 14.02 -14 13 C-12.38113585 11.32737283 -10.7547271 9.66204463 -9.125 8 C-8.22007813 7.071875 -7.31515625 6.14375 -6.3828125 5.1875 C-4 3 -4 3 -2 3 C-2 2.34 -2 1.68 -2 1 C-1.34 0.67 -0.68 0.34 0 0 Z " fill="#0F0F0F" transform="translate(98,67)"/>
<path d="M0 0 C0.66 0.33 1.32 0.66 2 1 C0.4411666 4.82622743 -1.95433582 7.25147379 -5 10 C-5.99 10.33 -6.98 10.66 -8 11 C-8 11.66 -8 12.32 -8 13 C-8.66 13 -9.32 13 -10 13 C-10.33 13.99 -10.66 14.98 -11 16 C-11.99 15.67 -12.98 15.34 -14 15 C-14 13 -14 13 -11.625 10.375 C-9 8 -9 8 -7 8 C-6.67 7.01 -6.34 6.02 -6 5 C-4.12382302 3.15500602 -2.07262391 1.6316401 0 0 Z " fill="#0E0E0E" transform="translate(220,188)"/>
<path d="M0 0 C0.66 0.99 1.32 1.98 2 3 C1.09515208 4.15518918 0.1755794 5.29885406 -0.75 6.4375 C-1.26046875 7.07558594 -1.7709375 7.71367188 -2.296875 8.37109375 C-4.19667629 10.18810554 -5.43586908 10.60423197 -8 11 C-8.103125 11.61875 -8.20625 12.2375 -8.3125 12.875 C-9 15 -9 15 -12 17 C-11.01 13.7 -10.02 10.4 -9 7 C-7.68 7 -6.36 7 -5 7 C-4.731875 6.401875 -4.46375 5.80375 -4.1875 5.1875 C-3.01506533 3.02775192 -1.80630718 1.64209744 0 0 Z " fill="#0B171D" transform="translate(135,110)"/>
<path d="M0 0 C0.99 0.66 1.98 1.32 3 2 C-0 5 -0 5 -1.4375 6.375 C-3.16259458 8.10893096 -3.16259458 8.10893096 -5.0625 10.6875 C-5.701875 11.450625 -6.34125 12.21375 -7 13 C-7.66 13 -8.32 13 -9 13 C-9.33 13.66 -9.66 14.32 -10 15 C-10.99 15 -11.98 15 -13 15 C-11.38989473 10.92623969 -8.46177729 8.23492931 -5.375 5.25 C-4.859375 4.74339844 -4.34375 4.23679687 -3.8125 3.71484375 C-2.54616661 2.47196098 -1.2736856 1.23534724 0 0 Z " fill="#0E0E0E" transform="translate(28,55)"/>
<path d="M0 0 C0.99 0.66 1.98 1.32 3 2 C2.34 2 1.68 2 1 2 C1 2.66 1 3.32 1 4 C0.01 4 -0.98 4 -2 4 C-2.268125 4.763125 -2.53625 5.52625 -2.8125 6.3125 C-3.95134505 8.88988618 -4.81416671 10.26954864 -7 12 C-7.66 12 -8.32 12 -9 12 C-9 12.66 -9 13.32 -9 14 C-9.66 14 -10.32 14 -11 14 C-11.33 14.66 -11.66 15.32 -12 16 C-12.33 14.68 -12.66 13.36 -13 12 C-11.68 11.34 -10.36 10.68 -9 10 C-9 9.34 -9 8.68 -9 8 C-8.34 8 -7.68 8 -7 8 C-7 7.34 -7 6.68 -7 6 C-6.34 6 -5.68 6 -5 6 C-4.67 5.01 -4.34 4.02 -4 3 C-1.9375 1.3125 -1.9375 1.3125 0 0 Z " fill="#0F0F0F" transform="translate(179,148)"/>
<path d="M0 0 C0.66 0.66 1.32 1.32 2 2 C1.5875 2.391875 1.175 2.78375 0.75 3.1875 C-1.32856691 5.34030144 -3.13868225 7.65834219 -5 10 C-5.66 10.66 -6.32 11.32 -7 12 C-7.99 12 -8.98 12 -10 12 C-10.66 13.32 -11.32 14.64 -12 16 C-12.66 15.67 -13.32 15.34 -14 15 C-13.1875 13.0625 -13.1875 13.0625 -12 11 C-11.01 10.67 -10.02 10.34 -9 10 C-9 9.34 -9 8.68 -9 8 C-8.34 8 -7.68 8 -7 8 C-6.773125 7.4225 -6.54625 6.845 -6.3125 6.25 C-4.66961977 3.4336339 -2.60466773 1.91922886 0 0 Z " fill="#0F0F0F" transform="translate(40,125)"/>
<path d="M0 0 C0.99 0.66 1.98 1.32 3 2 C1.8553125 2.5878125 1.8553125 2.5878125 0.6875 3.1875 C-2.28306158 5.190902 -3.20886296 6.96285459 -5 10 C-7.1875 11.3125 -7.1875 11.3125 -9 12 C-9 12.66 -9 13.32 -9 14 C-9.66 14 -10.32 14 -11 14 C-11.33 14.66 -11.66 15.32 -12 16 C-12.76171875 14.28515625 -12.76171875 14.28515625 -13 12 C-11.26953125 9.74609375 -11.26953125 9.74609375 -8.8125 7.4375 C-8.01457031 6.67308594 -7.21664062 5.90867187 -6.39453125 5.12109375 C-4.32834267 3.2908484 -2.23892222 1.61099461 0 0 Z " fill="#0E0E0E" transform="translate(127,38)"/>
<path d="M0 0 C-1.75 3.875 -1.75 3.875 -4 5 C-4.45375 5.804375 -4.9075 6.60875 -5.375 7.4375 C-7.07868328 10.12407748 -8.08653091 10.89489103 -11 12 C-11 12.66 -11 13.32 -11 14 C-12.32 14.33 -13.64 14.66 -15 15 C-14.43615403 11.23822163 -12.89178399 9.5414395 -10.1875 6.9375 C-9.15689453 5.93009766 -9.15689453 5.93009766 -8.10546875 4.90234375 C-2.67967146 0 -2.67967146 0 0 0 Z " fill="#0E0E0E" transform="translate(158,9)"/>
<path d="M0 0 C0.99 0.99 1.98 1.98 3 3 C1.8553125 3.5878125 1.8553125 3.5878125 0.6875 4.1875 C-2.28306158 6.190902 -3.20886296 7.96285459 -5 11 C-7.125 12.1875 -7.125 12.1875 -9 13 C-9.33 13.66 -9.66 14.32 -10 15 C-10.99 15 -11.98 15 -13 15 C-12.1875 13.0625 -12.1875 13.0625 -11 11 C-10.01 10.67 -9.02 10.34 -8 10 C-7.67 9.01 -7.34 8.02 -7 7 C-6.34 7 -5.68 7 -5 7 C-4.67 6.01 -4.34 5.02 -4 4 C-2.70644173 2.62804426 -1.37701298 1.28817344 0 0 Z " fill="#0F0F0F" transform="translate(80,165)"/>
<path d="M0 0 C0.66 0.33 1.32 0.66 2 1 C0.43122312 4.85063416 -2.0161728 7.15180131 -5 10 C-6.10676776 11.10155944 -7.21094056 12.20573224 -8.3125 13.3125 C-9.199375 14.199375 -10.08625 15.08625 -11 16 C-11.99 15.67 -12.98 15.34 -14 15 C-14 14.34 -14 13.68 -14 13 C-12.390625 11.4140625 -12.390625 11.4140625 -10.25 9.625 C-7.93096298 7.66242273 -5.74780716 5.7411705 -3.625 3.5625 C-2 2 -2 2 0 2 C0 1.34 0 0.68 0 0 Z " fill="#0F0F0F" transform="translate(107,17)"/>
<path d="M0 0 C0.99 0.33 1.98 0.66 3 1 C-0.15445333 4.87547124 -3.31152546 8.61059096 -7 12 C-7.66 12 -8.32 12 -9 12 C-9.66 13.32 -10.32 14.64 -11 16 C-11.66 15.67 -12.32 15.34 -13 15 C-11.38989473 10.92623969 -8.46177729 8.23492931 -5.375 5.25 C-4.859375 4.74339844 -4.34375 4.23679687 -3.8125 3.71484375 C-2.54616661 2.47196098 -1.2736856 1.23534724 0 0 Z " fill="#0F0F0F" transform="translate(205,0)"/>
<path d="M0 0 C0.66 0.66 1.32 1.32 2 2 C0.90344712 3.31886772 -0.20253423 4.62990057 -1.3125 5.9375 C-1.92738281 6.66839844 -2.54226562 7.39929688 -3.17578125 8.15234375 C-5 10 -5 10 -8 11 C-8 11.66 -8 12.32 -8 13 C-8.66 13 -9.32 13 -10 13 C-10.33 13.99 -10.66 14.98 -11 16 C-11.99 15.67 -12.98 15.34 -14 15 C-12.57637507 13.33910425 -11.15241266 11.67851805 -9.7265625 10.01953125 C-8.58944785 8.68946728 -7.45903697 7.35363807 -6.3359375 6.01171875 C-5.81257812 5.38910156 -5.28921875 4.76648438 -4.75 4.125 C-4.27046875 3.55007812 -3.7909375 2.97515625 -3.296875 2.3828125 C-2 1 -2 1 0 0 Z " fill="#0F0F0F" transform="translate(249,159)"/>
<path d="M0 0 C0.66 0.99 1.32 1.98 2 3 C-2.66666667 7.66666667 -7.33333333 12.33333333 -12 17 C-12.83203125 15.359375 -12.83203125 15.359375 -13 13 C-11.28556989 10.85771037 -9.67012184 9.10825073 -7.6875 7.25 C-7.17509766 6.74339844 -6.66269531 6.23679688 -6.13476562 5.71484375 C-2.29475868 2 -2.29475868 2 0 2 C0 1.34 0 0.68 0 0 Z " fill="#0FB1EF" transform="translate(159,127)"/>
<path d="M0 0 C0.33 0 0.66 0 1 0 C1.33 2.97 1.66 5.94 2 9 C2.66 9 3.32 9 4 9 C4.33 8.01 4.66 7.02 5 6 C7.5625 4.3125 7.5625 4.3125 10 3 C10.66 3.66 11.32 4.32 12 5 C11.34 5 10.68 5 10 5 C10 5.66 10 6.32 10 7 C8.3777546 8.70993434 6.70586575 10.37347684 5 12 C4.443125 12.598125 3.88625 13.19625 3.3125 13.8125 C2 15 2 15 0 15 C0 10.05 0 5.1 0 0 Z " fill="#0D1215" transform="translate(228,87)"/>
<path d="M0 0 C0.66 0.33 1.32 0.66 2 1 C0.69699525 3.90670291 -0.66114075 5.84824949 -3 8 C-3.515625 8.556875 -4.03125 9.11375 -4.5625 9.6875 C-6 11 -6 11 -8 11 C-8.66 12.32 -9.32 13.64 -10 15 C-11.32 15 -12.64 15 -14 15 C-6.94975689 6.63371151 -6.94975689 6.63371151 -4 4 C-3.34 4 -2.68 4 -2 4 C-1.34 2.68 -0.68 1.36 0 0 Z " fill="#0F0F0F" transform="translate(217,69)"/>
<path d="M0 0 C0.66 0.66 1.32 1.32 2 2 C1.67 2.66 1.34 3.32 1 4 C0.01 4.33 -0.98 4.66 -2 5 C-3.20882096 7.00016466 -3.20882096 7.00016466 -4 9 C-4.66 9 -5.32 9 -6 9 C-6 9.66 -6 10.32 -6 11 C-7.32 11.33 -8.64 11.66 -10 12 C-10 12.66 -10 13.32 -10 14 C-11.32 14.33 -12.64 14.66 -14 15 C-13.1875 13.0625 -13.1875 13.0625 -12 11 C-11.01 10.67 -10.02 10.34 -9 10 C-8.31558691 8.6756885 -7.65095851 7.34107242 -7 6 C-5.2734375 4.296875 -5.2734375 4.296875 -3.375 2.75 C-2.74335937 2.22921875 -2.11171875 1.7084375 -1.4609375 1.171875 C-0.73777344 0.59179688 -0.73777344 0.59179688 0 0 Z " fill="#0F0F0F" transform="translate(72,215)"/>
<path d="M0 0 C0.66 0.66 1.32 1.32 2 2 C-6.27906977 11.58139535 -6.27906977 11.58139535 -9 14 C-9.66 14 -10.32 14 -11 14 C-11 14.66 -11 15.32 -11 16 C-11.66 16 -12.32 16 -13 16 C-12.42308522 12.83145253 -11.58353113 11.21773541 -9.27734375 8.984375 C-8.73916016 8.45585937 -8.20097656 7.92734375 -7.64648438 7.3828125 C-7.08251953 6.84398437 -6.51855469 6.30515625 -5.9375 5.75 C-5.36966797 5.19570312 -4.80183594 4.64140625 -4.21679688 4.0703125 C-2.81787531 2.70665786 -1.40980886 1.35239583 0 0 Z " fill="#0F0F0F" transform="translate(31,174)"/>
<path d="M0 0 C0.99 0.66 1.98 1.32 3 2 C2.319375 2.495 1.63875 2.99 0.9375 3.5 C-2.25173726 6.21424447 -4.79456075 9.16500951 -7.44921875 12.390625 C-7.96097656 12.92171875 -8.47273438 13.4528125 -9 14 C-9.66 14 -10.32 14 -11 14 C-11.33 14.66 -11.66 15.32 -12 16 C-12 12 -12 12 -9.375 8.984375 C-8.25999428 7.89591703 -7.13452915 6.81809275 -6 5.75 C-5.42765625 5.19570312 -4.8553125 4.64140625 -4.265625 4.0703125 C-2.85256943 2.70435878 -1.42741242 1.35094389 0 0 Z " fill="#0F0F0F" transform="translate(60,145)"/>
<path d="M0 0 C0.66 0.99 1.32 1.98 2 3 C0.33333333 4.66666667 -1.33333333 6.33333333 -3 8 C-3.886875 8.928125 -4.77375 9.85625 -5.6875 10.8125 C-8 13 -8 13 -10 13 C-10 13.66 -10 14.32 -10 15 C-10.99 15.33 -11.98 15.66 -13 16 C-13 13 -13 13 -11.80664062 11.46606445 C-11.26201172 10.937146 -10.71738281 10.40822754 -10.15625 9.86328125 C-9.56972656 9.28642578 -8.98320312 8.70957031 -8.37890625 8.11523438 C-7.75886719 7.52033203 -7.13882812 6.92542969 -6.5 6.3125 C-5.87996094 5.70599609 -5.25992187 5.09949219 -4.62109375 4.47460938 C-3.08735293 2.97626257 -1.54451802 1.48723507 0 0 Z " fill="#0F0F0F" transform="translate(20,104)"/>
<path d="M0 0 C0.66 0.66 1.32 1.32 2 2 C0.90344712 3.31886772 -0.20253423 4.62990057 -1.3125 5.9375 C-1.92738281 6.66839844 -2.54226562 7.39929687 -3.17578125 8.15234375 C-5 10 -5 10 -8 11 C-8.33 11.99 -8.66 12.98 -9 14 C-9.66 14 -10.32 14 -11 14 C-11 14.66 -11 15.32 -11 16 C-11.99 15.67 -12.98 15.34 -14 15 C-9.59156563 9.70987876 -4.92440206 4.81191572 0 0 Z " fill="#0F0F0F" transform="translate(246,40)"/>
<path d="M0 0 C0.99 0.33 1.98 0.66 3 1 C-0.15445333 4.87547124 -3.31152546 8.61059096 -7 12 C-7.66 12 -8.32 12 -9 12 C-9 12.66 -9 13.32 -9 14 C-9.66 14 -10.32 14 -11 14 C-11.33 14.66 -11.66 15.32 -12 16 C-12 14.68 -12 13.36 -12 12 C-11.38125 11.7525 -10.7625 11.505 -10.125 11.25 C-7.90268805 10.20218211 -7.90268805 10.20218211 -7.125 8.25 C-5.41301863 4.82603725 -2.75842221 2.63849081 0 0 Z " fill="#0F0F0F" transform="translate(176,29)"/>
<path d="M0 0 C0.66 0.66 1.32 1.32 2 2 C1.5875 2.391875 1.175 2.78375 0.75 3.1875 C-1.09998297 5.03589051 -1.09998297 5.03589051 -2.875 7.4375 C-5.03545863 10.04275894 -7.29954047 11.97465536 -10 14 C-10.33 12.68 -10.66 11.36 -11 10 C-10.34 10 -9.68 10 -9 10 C-8.74476562 9.40703125 -8.48953125 8.8140625 -8.2265625 8.203125 C-6.88183502 5.78775462 -5.50785633 4.48788294 -3.375 2.75 C-2.74335938 2.22921875 -2.11171875 1.7084375 -1.4609375 1.171875 C-0.73777344 0.59179688 -0.73777344 0.59179688 0 0 Z " fill="#0E0E0E" transform="translate(11,154)"/>
<path d="M0 0 C0.99 0.66 1.98 1.32 3 2 C1.9171875 2.804375 1.9171875 2.804375 0.8125 3.625 C-1.37797144 5.47473144 -2.93411359 7.04783016 -4.6875 9.25 C-5.450625 10.1575 -6.21375 11.065 -7 12 C-7.66 12 -8.32 12 -9 12 C-9 12.66 -9 13.32 -9 14 C-9.66 14 -10.32 14 -11 14 C-11.33 14.66 -11.66 15.32 -12 16 C-12 12 -12 12 -9.9375 9.6875 C-8.968125 8.800625 -7.99875 7.91375 -7 7 C-5.72390448 5.73445073 -4.45317789 4.46346795 -3.1875 3.1875 C-2.125 2.125 -1.0625 1.0625 0 0 Z " fill="#0F0F0F" transform="translate(37,6)"/>
<path d="M0 0 C0.66 0.66 1.32 1.32 2 2 C0.8553125 3.0828125 0.8553125 3.0828125 -0.3125 4.1875 C-3.0496527 6.83002025 -3.0496527 6.83002025 -4.625 9.8125 C-5.07875 10.534375 -5.5325 11.25625 -6 12 C-6.99 12 -7.98 12 -9 12 C-9 12.66 -9 13.32 -9 14 C-9.66 14 -10.32 14 -11 14 C-11.33 14.66 -11.66 15.32 -12 16 C-12.33 15.01 -12.66 14.02 -13 13 C-12.34 13 -11.68 13 -11 13 C-10.34 11.35 -9.68 9.7 -9 8 C-8.34 8 -7.68 8 -7 8 C-7 7.34 -7 6.68 -7 6 C-5.46875 4.4921875 -5.46875 4.4921875 -3.5 2.875 C-2.8503125 2.33617188 -2.200625 1.79734375 -1.53125 1.2421875 C-0.77328125 0.62730469 -0.77328125 0.62730469 0 0 Z " fill="#10B0EE" transform="translate(208,119)"/>
<path d="M0 0 C0.66 0.66 1.32 1.32 2 2 C0.33333333 3.66666667 -1.33333333 5.33333333 -3 7 C-3.886875 7.928125 -4.77375 8.85625 -5.6875 9.8125 C-8 12 -8 12 -10 12 C-10.33 12.66 -10.66 13.32 -11 14 C-11.66 13.34 -12.32 12.68 -13 12 C-11.21135158 10.18443212 -9.41928379 8.37248378 -7.625 6.5625 C-7.11710937 6.04623047 -6.60921875 5.52996094 -6.0859375 4.99804688 C-2.2265625 1.11328125 -2.2265625 1.11328125 0 0 Z " fill="#0F0F0F" transform="translate(101,186)"/>
<path d="M0 0 C0.33 1.32 0.66 2.64 1 4 C-0.32 4.33 -1.64 4.66 -3 5 C-3.04125 5.556875 -3.0825 6.11375 -3.125 6.6875 C-4.49111669 10.29795126 -6.87760624 11.85718075 -10 14 C-12.375 13.8125 -12.375 13.8125 -14 13 C-13.34 13 -12.68 13 -12 13 C-12 12.34 -12 11.68 -12 11 C-10.34614767 9.65080468 -8.678298 8.31866272 -7 7 C-6.34 6.01 -5.68 5.02 -5 4 C-4.34 4 -3.68 4 -3 4 C-3 3.34 -3 2.68 -3 2 C-2.01 1.34 -1.02 0.68 0 0 Z " fill="#0F0F0F" transform="translate(191,217)"/>
<path d="M0 0 C2.97 0.495 2.97 0.495 6 1 C5.01 1.33 4.02 1.66 3 2 C2.31513275 3.32407669 1.65129797 4.65909241 1 6 C-1 8.25 -1 8.25 -3 10 C-3.66 10 -4.32 10 -5 10 C-5.33 10.66 -5.66 11.32 -6 12 C-6.33 10.68 -6.66 9.36 -7 8 C-5.68 7.34 -4.36 6.68 -3 6 C-3 5.34 -3 4.68 -3 4 C-2.34 4 -1.68 4 -1 4 C-0.67 2.68 -0.34 1.36 0 0 Z " fill="#0E0F11" transform="translate(144,181)"/>
<path d="M0 0 C0.66 0.66 1.32 1.32 2 2 C0.76238177 3.65516419 -0.49057455 5.29886798 -1.75 6.9375 C-2.44609375 7.85402344 -3.1421875 8.77054688 -3.859375 9.71484375 C-6.01029035 12.01098513 -6.93617261 12.67567593 -10 13 C-9.48223379 8.89552608 -7.35372556 7.04300477 -4.4375 4.25 C-3.61121094 3.45078125 -2.78492187 2.6515625 -1.93359375 1.828125 C-1.29550781 1.22484375 -0.65742187 0.6215625 0 0 Z " fill="#0EAEEB" transform="translate(115,90)"/>
<path d="M0 0 C0.99 0.33 1.98 0.66 3 1 C-0.625 6.875 -0.625 6.875 -4 8 C-4 8.66 -4 9.32 -4 10 C-4.639375 10.12375 -5.27875 10.2475 -5.9375 10.375 C-6.618125 10.58125 -7.29875 10.7875 -8 11 C-8.33 11.66 -8.66 12.32 -9 13 C-9 11.68 -9 10.36 -9 9 C-8.38125 8.7525 -7.7625 8.505 -7.125 8.25 C-4.5927804 6.76045906 -4.19281342 5.62418952 -3 3 C-1.375 1.25 -1.375 1.25 0 0 Z " fill="#0F0F0F" transform="translate(83,0)"/>
<path d="M0 0 C1 3 1 3 0.2734375 4.98046875 C-1.0838908 7.13304155 -2.46679506 8.63344631 -4.375 10.3125 C-4.96023437 10.84488281 -5.54546875 11.37726563 -6.1484375 11.92578125 C-8 13 -8 13 -10.2265625 12.66796875 C-10.81179687 12.44753906 -11.39703125 12.22710937 -12 12 C-10.625 10.5 -10.625 10.5 -9 9 C-8.34 9 -7.68 9 -7 9 C-6.773125 8.443125 -6.54625 7.88625 -6.3125 7.3125 C-4.64103234 4.36753316 -2.44723648 2.31843456 0 0 Z " fill="#0EB1F0" transform="translate(227,140)"/>
<path d="M0 0 C-0.66 1.98 -1.32 3.96 -2 6 C-2.66 6 -3.32 6 -4 6 C-4.33 6.99 -4.66 7.98 -5 9 C-5.99 9 -6.98 9 -8 9 C-8.33 9.99 -8.66 10.98 -9 12 C-9.99 11.67 -10.98 11.34 -12 11 C-2.73033708 0 -2.73033708 0 0 0 Z " fill="#100E0F" transform="translate(186,102)"/>
<path d="M0 0 C1.22571316 3.83403077 1.16794399 7.56134077 1.1875 11.5625 C1.19974609 12.23474609 1.21199219 12.90699219 1.22460938 13.59960938 C1.23562975 17.29878237 1.10685378 18.83971933 -1 22 C-2.95959774 14.40655875 -2.16040997 7.42640926 0 0 Z " fill="#021C28" transform="translate(42,57)"/>
<path d="M0 0 C0 3 0 3 -2 5.4375 C-7.11050299 9.8027213 -12.24927367 12.32492737 -19 13 C-19.33 12.34 -19.66 11.68 -20 11 C-19.02160156 10.74476563 -19.02160156 10.74476563 -18.0234375 10.484375 C-10.61597175 8.43038745 -5.30077243 5.70852416 0 0 Z " fill="#0088BD" transform="translate(212,176)"/>
<path d="M0 0 C-2.91544897 1.5216893 -5.85775151 2.72661921 -8.9375 3.875 C-12.90404086 5.42078431 -15.69946132 7.29955926 -19 10 C-19.99 9.67 -20.98 9.34 -22 9 C-15.23343888 3.43918249 -9.06499945 -0.67987496 0 0 Z " fill="#008ABE" transform="translate(64,43)"/>
<path d="M0 0 C0.33 0.99 0.66 1.98 1 3 C-0.28479041 4.50589388 -1.57804082 6.00457375 -2.875 7.5 C-3.59429687 8.3353125 -4.31359375 9.170625 -5.0546875 10.03125 C-5.69664062 10.6809375 -6.33859375 11.330625 -7 12 C-7.66 12 -8.32 12 -9 12 C-9.33 12.66 -9.66 13.32 -10 14 C-10 10 -10 10 -7.8125 7.421875 C-6.884375 6.54015625 -5.95625 5.6584375 -5 4.75 C-4.071875 3.85796875 -3.14375 2.9659375 -2.1875 2.046875 C-1.465625 1.37140625 -0.74375 0.6959375 0 0 Z " fill="#101010" transform="translate(273,13)"/>
<path d="M0 0 C0.99 0 1.98 0 3 0 C2.67 1.32 2.34 2.64 2 4 C1.34 4 0.68 4 0 4 C-0.66 5.32 -1.32 6.64 -2 8 C-2.66 8 -3.32 8 -4 8 C-4.33 8.99 -4.66 9.98 -5 11 C-5.66 11 -6.32 11 -7 11 C-6.52354792 6.71193127 -5.34097516 4.73352513 -2 2 C-1.34 2 -0.68 2 0 2 C0 1.34 0 0.68 0 0 Z " fill="#E72C32" transform="translate(67,97)"/>
<path d="M0 0 C0.66 0.33 1.32 0.66 2 1 C2 1.99 2 2.98 2 4 C-1.3282731 5.66413655 -4.99733973 4.81867406 -8.625 4.5625 C-9.42679688 4.51029297 -10.22859375 4.45808594 -11.0546875 4.40429688 C-13.03679103 4.27451629 -15.01844499 4.13790265 -17 4 C-17 3.67 -17 3.34 -17 3 C-15.53626953 2.80083984 -15.53626953 2.80083984 -14.04296875 2.59765625 C-12.13451172 2.33275391 -12.13451172 2.33275391 -10.1875 2.0625 C-8.29064453 1.80146484 -8.29064453 1.80146484 -6.35546875 1.53515625 C-3.01678297 1.09607545 -3.01678297 1.09607545 0 0 Z " fill="#160A0C" transform="translate(200,181)"/>
<path d="M0 0 C0.99 0.66 1.98 1.32 3 2 C1.9171875 2.804375 1.9171875 2.804375 0.8125 3.625 C-2.247842 6.2092888 -4.51220011 8.87248014 -7 12 C-7.74609375 10.265625 -7.74609375 10.265625 -8 8 C-6.34765625 5.859375 -6.34765625 5.859375 -4.0625 3.75 C-3.31097656 3.04359375 -2.55945313 2.3371875 -1.78515625 1.609375 C-1.19605469 1.07828125 -0.60695313 0.5471875 0 0 Z " fill="#0F0F0F" transform="translate(8,35)"/>
<path d="M0 0 C0.99 0.33 1.98 0.66 3 1 C2.01 1.33 1.02 1.66 0 2 C0 2.66 0 3.32 0 4 C-0.66 4 -1.32 4 -2 4 C-2.33 4.99 -2.66 5.98 -3 7 C-4.31787285 8.02028865 -5.65210653 9.01971384 -7 10 C-7.66 10.99 -8.32 11.98 -9 13 C-8.72387317 9.04218214 -8.25946652 7.30043492 -5.625 4.25 C-3 2 -3 2 0 0 Z " fill="#210F12" transform="translate(70,55)"/>
<path d="M0 0 C0.99 0.33 1.98 0.66 3 1 C2.67 1.99 2.34 2.98 2 4 C2.66 4.33 3.32 4.66 4 5 C0.49223216 6.60355101 -2.14354879 7.22036864 -6 7 C-4.02 4.69 -2.04 2.38 0 0 Z " fill="#130C0C" transform="translate(199,168)"/>
<path d="M0 0 C0.33 1.32 0.66 2.64 1 4 C0.38125 4.2475 -0.2375 4.495 -0.875 4.75 C-3.35068687 6.20628639 -3.95125002 7.37812506 -5 10 C-6.32 10 -7.64 10 -9 10 C-8.06409496 8.8944811 -7.12620142 7.79064547 -6.1875 6.6875 C-5.66542969 6.07261719 -5.14335937 5.45773438 -4.60546875 4.82421875 C-3.12827531 3.14575321 -1.59960869 1.56117966 0 0 Z " fill="#0F0F0F" transform="translate(273,135)"/>
<path d="M0 0 C-1.3937282 4.43458973 -3.60582235 6.87378374 -7 10 C-7.66 9.67 -8.32 9.34 -9 9 C-7.67183131 4.6532661 -5.0855272 0 0 0 Z " fill="#E82C33" transform="translate(87,120)"/>
<path d="M0 0 C0.66 0 1.32 0 2 0 C2.21755666 5.4389165 2.10428384 9.87080814 0 15 C-1.32 14.01 -2.64 13.02 -4 12 C-3.525625 11.505 -3.05125 11.01 -2.5625 10.5 C-0.37832093 7.00531349 -0.34086089 4.09033064 0 0 Z " fill="#9F141B" transform="translate(211,157)"/>
<path d="M0 0 C0.33 0.99 0.66 1.98 1 3 C-0.40445835 5.2636564 -2.1967913 7.0208685 -4 9 C-5.32 8.67 -6.64 8.34 -8 8 C-7.34 7.67 -6.68 7.34 -6 7 C-5.71125 6.38125 -5.4225 5.7625 -5.125 5.125 C-3.80519587 2.63203665 -2.32278328 1.54852219 0 0 Z " fill="#EB2B33" transform="translate(107,139)"/>
<path d="M0 0 C4.4985174 0.45231893 7.90156334 2.38975741 11.8125 4.5625 C12.7087207 5.0565332 12.7087207 5.0565332 13.62304688 5.56054688 C15.08533998 6.36773267 16.5431399 7.18304917 18 8 C17.01 8.495 17.01 8.495 16 9 C13.62304468 8.13699144 11.3647591 7.21874447 9.0625 6.1875 C8.42892578 5.91357422 7.79535156 5.63964844 7.14257812 5.35742188 C4.23607405 4.0829611 1.64785051 2.76523367 -1 1 C-0.67 0.67 -0.34 0.34 0 0 Z " fill="#B4171D" transform="translate(113,58)"/>
<path d="M0 0 C0.33 0 0.66 0 1 0 C3.42857143 8.42857143 3.42857143 8.42857143 2 13 C-0.51699845 10.48300155 -1.10964078 8.42445854 -2 5 C-1.53125 1.53125 -1.53125 1.53125 0 0 Z " fill="#04A2DF" transform="translate(40,74)"/>
<path d="M0 0 C-0.6875 1.875 -0.6875 1.875 -2 4 C-3.64363134 4.72159424 -5.31050386 5.39351421 -7 6 C-7.33 6.66 -7.66 7.32 -8 8 C-8 4 -8 4 -6.25 1.75 C-4 0 -4 0 0 0 Z " fill="#EA2B34" transform="translate(195,176)"/>
<path d="M0 0 C0.66 0.99 1.32 1.98 2 3 C0.68 4.65 -0.64 6.3 -2 8 C-2.99 7.67 -3.98 7.34 -5 7 C-3.70700306 4.11562221 -2.34058637 2.12780579 0 0 Z " fill="#0E1214" transform="translate(135,110)"/>
<path d="M0 0 C2.64 0.33 5.28 0.66 8 1 C8.33 2.32 8.66 3.64 9 5 C7.68 5 6.36 5 5 5 C4.67 5.66 4.34 6.32 4 7 C3.896875 6.401875 3.79375 5.80375 3.6875 5.1875 C2.91123545 2.71756736 1.92911079 1.67748765 0 0 Z " fill="#541519" transform="translate(131,67)"/>
<path d="M0 0 C2.25 0.25 2.25 0.25 4 1 C2.71034824 2.37562854 1.37310707 3.70766393 0 5 C-0.66 5 -1.32 5 -2 5 C-2.33 5.66 -2.66 6.32 -3 7 C-3.33 6.01 -3.66 5.02 -4 4 C-2.25 1.9375 -2.25 1.9375 0 0 Z " fill="#0E0E0E" transform="translate(246,0)"/>
<path d="M0 0 C0.33 0.66 0.66 1.32 1 2 C1.66 2.33 2.32 2.66 3 3 C2.34 3 1.68 3 1 3 C1 3.66 1 4.32 1 5 C0.01 5 -0.98 5 -2 5 C-2.33 5.99 -2.66 6.98 -3 8 C-4.32 7.67 -5.64 7.34 -7 7 C-6.34 7 -5.68 7 -5 7 C-4.67 6.01 -4.34 5.02 -4 4 C-2.70644173 2.62804426 -1.37701298 1.28817344 0 0 Z " fill="#0F0F0F" transform="translate(22,223)"/>
<path d="M0 0 C1.79275866 3.11910856 2.34290718 5.67682428 2.625 9.25 C2.69976562 10.14203125 2.77453125 11.0340625 2.8515625 11.953125 C2.92503906 12.96632813 2.92503906 12.96632813 3 14 C2.01 13.34 1.02 12.68 0 12 C-0.29296875 9.1796875 -0.29296875 9.1796875 -0.1875 5.875 C-0.16042969 4.77929688 -0.13335937 3.68359375 -0.10546875 2.5546875 C-0.07066406 1.71164063 -0.03585938 0.86859375 0 0 Z " fill="#0087BA" transform="translate(37,62)"/>
<path d="M0 0 C2.1015625 0.42578125 2.1015625 0.42578125 4 1 C2.8803014 2.00593243 1.7540588 3.0045849 0.625 4 C-0.00148438 4.556875 -0.62796875 5.11375 -1.2734375 5.6875 C-3 7 -3 7 -5 7 C-3.7251791 4.15616877 -2.54862922 1.86245982 0 0 Z " fill="#E32C33" transform="translate(76,48)"/>
<path d="M0 0 C0.66 0.66 1.32 1.32 2 2 C-0.3125 4.5 -0.3125 4.5 -3 7 C-3.99 7 -4.98 7 -6 7 C-4.60667426 3.63279613 -3.0210714 2.0140476 0 0 Z " fill="#EA2D34" transform="translate(130,157)"/>
<path d="M0 0 C5.75 1.875 5.75 1.875 8 3 C8 3.66 8 4.32 8 5 C4.62537285 4.45276317 2.91765 3.9451 0 2 C0 1.34 0 0.68 0 0 Z " fill="#009ED9" transform="translate(123,168)"/>
<path d="M0 0 C1.32 0.33 2.64 0.66 4 1 C3.34 2.65 2.68 4.3 2 6 C0.68 5.34 -0.64 4.68 -2 4 C-1.34 2.68 -0.68 1.36 0 0 Z " fill="#17171A" transform="translate(109,135)"/>
<path d="M0 0 C1.65 1.65 3.3 3.3 5 5 C4.01 5.66 3.02 6.32 2 7 C0.4375 5.75 0.4375 5.75 -1 4 C-0.6875 1.8125 -0.6875 1.8125 0 0 Z " fill="#0193CB" transform="translate(66,121)"/>
<path d="M0 0 C2 3 2 3 3 6 C2.34 6 1.68 6 1 6 C0.67 6.66 0.34 7.32 0 8 C-0.66 6.02 -1.32 4.04 -2 2 C-1.34 1.34 -0.68 0.68 0 0 Z " fill="#0195CC" transform="translate(43,85)"/>
<path d="M0 0 C0.99 0.66 1.98 1.32 3 2 C2.01 3.485 2.01 3.485 1 5 C-1.625 5.1875 -1.625 5.1875 -4 5 C-2.68 3.35 -1.36 1.7 0 0 Z " fill="#0E0E0E" transform="translate(141,226)"/>
<path d="M0 0 C2.12508244 3.18762365 2.5020163 5.26512223 3 9 C1.68 9.33 0.36 9.66 -1 10 C-0.835 9.0925 -0.67 8.185 -0.5 7.25 C0.10137146 3.88912497 0.10137146 3.88912497 0 0 Z " fill="#0B242D" transform="translate(38,79)"/>
</svg>
